<svg width="44" height="44" viewBox="0 0 44 44" fill="none" xmlns="http://www.w3.org/2000/svg">
<path d="M2.80682 38.2114L5.13332 42.4714L7.45982 38.2114C5.99957 37.4609 4.26707 37.4609 2.80682 38.2114Z" fill="#754C29"/>
<path d="M0.855225 34.6362L2.80681 38.2087C4.26706 37.4591 6.00047 37.4591 7.46072 38.2087L9.41231 34.6362L5.11772 31.7877L0.855225 34.6362Z" fill="#D1D3D4"/>
<path d="M2.80682 38.2114L5.13332 42.4714L7.45982 38.2114C5.99957 37.4609 4.26707 37.4609 2.80682 38.2114Z" fill="#754C29"/>
<path d="M0.855225 34.6362L2.80681 38.2087C4.26706 37.4591 6.00047 37.4591 7.46072 38.2087L9.41231 34.6362L5.11772 31.7877L0.855225 34.6362Z" fill="#D1D3D4"/>
<path d="M0.733337 11.7162V34.4165L0.855254 34.638L5.11775 31.7904L5.13425 31.8014V11.7162H0.733337Z" fill="#FFCD00"/>
<path d="M5.13336 11.7162V31.8014L9.41145 34.6389L9.53336 34.4165V11.7162H5.13336Z" fill="#D80027"/>
<path d="M9.53334 11.7163V8.05493H0.733337V11.7163H5.13334H9.53334Z" fill="#2488FF"/>
<path d="M9.53334 5.12583C9.53334 2.69929 7.56342 0.732239 5.13334 0.732239C2.70325 0.732239 0.733337 2.69929 0.733337 5.12583V8.05489H9.53334V5.12583Z" fill="#F1F2F2"/>
<path d="M8.06665 11.7162V33.7474L9.4114 34.6389L9.53332 34.4165V11.7162H8.06665Z" fill="#BD0022"/>
<path d="M8.06665 8.05493H9.53332V11.7163H8.06665V8.05493Z" fill="#006DF0"/>
<path d="M5.13336 0.732239C4.88769 0.734069 4.64202 0.756037 4.40002 0.798143C6.51569 1.15512 8.06486 2.98395 8.06669 5.12583V8.05489H9.53336V5.12583C9.53336 2.69929 7.56344 0.732239 5.13336 0.732239Z" fill="#D1D3D4"/>
<path d="M16.1334 0.732239H27.8667V43.2036H16.1334V0.732239Z" fill="#FFCD00"/>
<path d="M22 6.59038C22.81 6.59038 23.4667 5.93469 23.4667 5.12585C23.4667 4.31701 22.81 3.66132 22 3.66132C21.19 3.66132 20.5333 4.31701 20.5333 5.12585C20.5333 5.93469 21.19 6.59038 22 6.59038Z" fill="#D80027"/>
<path d="M42.5334 2.19677C42.5334 1.38762 41.877 0.732239 41.0667 0.732239H38.1334C37.323 0.732239 36.6667 1.38762 36.6667 2.19677V5.12583H42.5334V2.19677Z" fill="#D80027"/>
<path d="M43.2667 5.85812C43.2667 5.45354 42.9385 5.12585 42.5334 5.12585H36.6667C36.2615 5.12585 35.9333 5.45354 35.9333 5.85812V8.05492H43.2667V5.85812Z" fill="#FFCD00"/>
<path d="M35.9333 8.05493H43.2667V24.897H35.9333V8.05493Z" fill="#57A4FF"/>
<path d="M35.9333 24.897H43.2667V27.8261H35.9333V24.897Z" fill="#006DF0"/>
<path d="M35.9333 27.8261H43.2667V30.7552H35.9333V27.8261Z" fill="#9BC9FF"/>
<path d="M35.9333 30.7551H43.2667V33.6842H35.9333V30.7551Z" fill="#006DF0"/>
<path d="M43.2667 34.3085V33.6842H35.9333V34.3085C35.9333 34.8577 36.0883 35.395 36.3788 35.8609L39.6 41.0069L42.8212 35.8609C43.1118 35.3959 43.2667 34.8577 43.2667 34.3085Z" fill="#57A4FF"/>
<path d="M41.0666 0.732239H39.6C40.4103 0.732239 41.0666 1.38762 41.0666 2.19677V5.12583H42.5333V2.19677C42.5333 1.38762 41.877 0.732239 41.0666 0.732239Z" fill="#BD0022"/>
<path d="M42.5333 5.12585H41.0667C41.4718 5.12585 41.8 5.45354 41.8 5.85812V8.05492H43.2667V5.85812C43.2667 5.45354 42.9385 5.12585 42.5333 5.12585Z" fill="#EBBF00"/>
<path d="M41.8 8.05493H43.2667V24.897H41.8V8.05493Z" fill="#2488FF"/>
<path d="M41.8 24.897H43.2667V27.8261H41.8V24.897Z" fill="#005ECE"/>
<path d="M41.8 27.8261H43.2667V30.7552H41.8V27.8261Z" fill="#57A4FF"/>
<path d="M41.8 30.7551H43.2667V33.6842H41.8V30.7551Z" fill="#005ECE"/>
<path d="M41.8 33.6842V34.3085C41.8 34.8577 41.6451 35.395 41.3545 35.8609L38.8666 39.8352L39.6 41.0069L42.8211 35.8609C43.1126 35.395 43.2666 34.8577 43.2666 34.3085V33.6842H41.8Z" fill="#2488FF"/>
<path d="M26.4 0.732239H27.8667V43.2036H26.4V0.732239Z" fill="#EBBF00"/>
<path d="M5.13333 0C2.29992 0.00366133 0.00366667 2.29657 0 5.12586V34.6032L5.13333 44L10.2667 34.6032V5.12586C10.263 2.29657 7.96675 0.00366133 5.13333 0ZM5.11775 32.6709L8.44525 34.8778L7.13533 37.276C5.841 36.8101 4.42383 36.8101 3.1295 37.276L1.81867 34.8751L5.11775 32.6709ZM4.4 31.3886L1.46667 33.3492V12.4485H4.4V31.3886ZM3.8445 38.5831C4.68417 38.3277 5.58158 38.3277 6.42125 38.5831L5.13333 40.9428L3.8445 38.5831ZM8.8 33.3538L5.86667 31.4087V12.4485H8.8V33.3538ZM8.8 10.984H1.46667V8.78718H8.8V10.984ZM8.8 7.32265H1.46667V5.12586C1.46667 3.10389 3.10842 1.46453 5.13333 1.46453C7.15825 1.46453 8.8 3.10389 8.8 5.12586V7.32265Z" fill="black"/>
<path d="M15.4 43.9359H28.6V0H15.4V43.9359ZM16.8667 1.46453H27.1334V10.2517H23.4667V11.7162H27.1334V13.1808H24.9334V14.6453H27.1334V16.1098H23.4667V17.5744H27.1334V19.0389H24.9334V20.5034H27.1334V21.968H23.4667V23.4325H27.1334V24.897H24.9334V26.3616H27.1334V27.8261H23.4667V29.2906H27.1334V30.7551H24.9334V32.2197H27.1334V33.6842H23.4667V35.1487H27.1334V36.6133H24.9334V38.0778H27.1334V39.5423H23.4667V41.0069H27.1334V42.4714H16.8667V1.46453Z" fill="black"/>
<path d="M24.2 5.12587C24.2 3.91306 23.2146 2.92908 22 2.92908C20.7854 2.92908 19.8 3.91306 19.8 5.12587C19.8 6.33869 20.7854 7.32267 22 7.32267C23.2146 7.32267 24.2 6.33869 24.2 5.12587ZM22 5.85814C21.5948 5.85814 21.2667 5.53045 21.2667 5.12587C21.2667 4.7213 21.5948 4.39361 22 4.39361C22.4052 4.39361 22.7333 4.7213 22.7333 5.12587C22.7333 5.53045 22.4052 5.85814 22 5.85814Z" fill="black"/>
<path d="M43.2667 4.5968V2.1968C43.2667 0.983982 42.2812 0 41.0667 0H38.1333C36.9187 0 35.9333 0.983982 35.9333 2.1968V4.5968C35.4814 4.85675 35.2018 5.3373 35.2 5.85812V7.32265H34.4667C33.2521 7.32265 32.2667 8.30663 32.2667 9.51945V18.3066H33.7333V9.51945C33.7333 9.11487 34.0615 8.78718 34.4667 8.78718H35.2L35.2073 34.4165C35.2247 35.0645 35.4145 35.697 35.7582 36.2471L38.8667 41.2165V43.9359H40.3333V41.2165L43.4417 36.2471C43.7855 35.697 43.9752 35.0645 43.9927 34.4165L44 5.85812C43.9982 5.3373 43.7186 4.85675 43.2667 4.5968ZM37.4 2.1968C37.4 1.79222 37.7282 1.46453 38.1333 1.46453H41.0667C41.4718 1.46453 41.8 1.79222 41.8 2.1968V4.39359H37.4V2.1968ZM42.1987 35.4728L39.6 39.6247L37.0012 35.4718C36.8005 35.1542 36.6859 34.7908 36.6667 34.4156H42.5333C42.515 34.7908 42.3995 35.1551 42.1987 35.4728ZM42.5333 32.9519H36.6667V31.4874H42.5333V32.9519ZM42.5333 30.0229H36.6667V28.5583H42.5333V30.0229ZM42.5333 27.0938H36.6667V25.6293H42.5333V27.0938ZM42.5333 24.1648H36.6667V8.78718H42.5333V24.1648ZM36.6667 7.32265V5.85812H42.5333V7.32265H36.6667Z" fill="black"/>
</svg>
